<svg width="41" height="38" viewBox="0 0 41 38" fill="none" xmlns="http://www.w3.org/2000/svg">
<g clip-path="url(#clip0_136_1519)">
<path d="M8.94669 14.022C8.16759 14.022 7.53619 14.6529 7.53619 15.4314C7.53619 16.2099 8.16759 16.8438 8.94669 16.8438C9.7258 16.8438 10.3572 16.2128 10.3572 15.4314C10.3572 14.65 9.7258 14.022 8.94669 14.022Z" fill="#800019"/>
<path d="M22.8923 13.8745C22.0524 13.8745 21.3718 14.5546 21.3718 15.3939C21.3718 16.2332 22.0524 16.9134 22.8923 16.9134C23.7322 16.9134 24.4129 16.2332 24.4129 15.3939C24.4129 14.5546 23.7322 13.8745 22.8923 13.8745Z" fill="#800019"/>
<path d="M35.5173 0H5.48559C2.45606 0 0 2.45423 0 5.48149V23.292C0 26.3193 2.45606 28.7735 5.48559 28.7735H16.0918L19.7006 37.2678C19.7006 37.2678 19.9497 38.0029 20.5492 38.0029C21.1517 38.0029 21.3979 37.2678 21.3979 37.2678L25.0066 28.7735H35.5173C38.5468 28.7735 41.0029 26.3193 41.0029 23.292V5.48149C41.0029 2.45423 38.5468 0 35.5173 0ZM12.8798 15.7441C12.8625 19 9.49407 19.0926 9.49407 19.0926C8.19073 19.0926 7.45507 18.2302 7.45507 18.2302V18.8177H5.00191V8.70556C5.00191 8.70556 4.99032 8.70267 5.00191 8.69977V8.70556C5.15541 8.72871 7.45507 8.69977 7.45507 8.69977V12.5663C8.03144 11.5823 9.6997 11.5997 9.6997 11.5997C13.3317 11.9383 12.8769 15.7441 12.8769 15.7441H12.8798ZM17.1982 11.9123V18.835H14.7972V11.9817C14.7972 11.0498 13.6387 10.7893 13.6387 10.7893V8.37273C17.4734 8.52902 17.1982 11.9123 17.1982 11.9123ZM22.8894 19.0984C20.6651 19.0984 18.8636 17.4401 18.8636 15.3968C18.8636 13.3535 20.6651 11.6952 22.8894 11.6952C25.1138 11.6952 26.9153 13.3535 26.9153 15.3968C26.9153 17.4401 25.1138 19.0984 22.8894 19.0984ZM36.0444 19.0984C36.0444 19.0984 36.0792 22.6148 32.5023 22.6148H31.4133V20.3371H32.0707C32.0707 20.3371 33.5739 20.476 33.5565 18.1607C33.5565 18.1607 33.264 19.0984 31.1555 19.0984C31.1555 19.0984 28.1665 18.8842 28.1665 15.9698V14.8643C28.1665 14.8643 28.236 11.8428 31.5175 11.6026C31.5175 11.6026 32.8122 11.4637 33.6086 12.5345V11.7936H36.0444V19.1013V19.0984Z" fill="#800019"/>
<path d="M32.23 13.9092C31.4103 13.9092 30.7442 14.5748 30.7442 15.3939C30.7442 16.2129 31.4103 16.8786 32.23 16.8786C33.0497 16.8786 33.7158 16.2129 33.7158 15.3939C33.7158 14.5748 33.0497 13.9092 32.23 13.9092Z" fill="#800019"/>
</g>
<defs>
<clipPath id="clip0_136_1519">
<rect width="41" height="38" fill="white"/>
</clipPath>
</defs>
</svg>
