<svg width="47" height="31" viewBox="0 0 47 31" fill="none" xmlns="http://www.w3.org/2000/svg">
<path d="M46.1538 19.1953H41.8007V0.75H46.1538V19.1953Z" fill="#800019"/>
<path d="M11.7483 5.99016L9.25708 19.1953H6.21514L3.69766 5.99016V19.1953H0.00012207V0.75H5.55954L7.73611 12.2783L9.91267 0.75H15.4459V19.1953H11.7483V5.99016Z" fill="#800019"/>
<path d="M28.9249 14.584C28.9249 17.7805 26.3287 19.6146 23.1294 19.6146C19.9301 19.6146 17.334 17.7805 17.334 14.584V0.75H21.6871V14.5054C21.6871 15.2914 22.3427 15.9464 23.1294 15.9464C23.9161 15.9464 24.5717 15.3176 24.5717 14.5054V0.75H28.9249V14.584Z" fill="#800019"/>
<path d="M39.9126 15.1604C39.9126 17.9377 37.6574 19.6408 34.8515 19.6408C32.0455 19.6408 29.8165 17.9377 29.8165 15.1604V12.4617H33.6976V15.1604C33.6976 15.6844 34.1172 16.1037 34.6417 16.1037C35.1662 16.1037 35.5857 15.6844 35.5857 15.1604V0.75H39.9389L39.9126 15.1604Z" fill="#800019"/>
<path d="M11.7746 28.0513H12.6138V26.8461H11.6435V25.9553H12.9284V24.75H11.6435V23.8068H12.5089V22.5492H7.00189C7.10678 22.4182 7.18545 22.261 7.29035 22.13L6.00539 21.5273C5.66448 22.0514 5.2449 22.5754 4.72043 23.0732C4.45819 23.3352 4.19595 23.571 3.93372 23.7806L5.08756 24.5666C5.21868 24.4618 5.34979 24.357 5.48091 24.2522V24.75H4.22218V25.9553H5.48091V26.8461H4.58931V28.0513H5.45469C5.14 28.654 4.61553 29.3876 4.22218 29.7282L5.32357 30.5666C5.87427 30.0426 6.37252 29.3352 6.76587 28.4968L5.90049 28.0513H11.4337L10.5421 28.5754C10.9879 29.1518 11.4861 29.8854 11.7746 30.488L13.0071 29.8854C12.7186 29.3352 12.2204 28.5754 11.7746 28.0513ZM10.3061 26.8461H9.96516V25.9553H10.3061V26.8461ZM8.70643 25.9553V26.8461H8.33929V25.9553H8.70643ZM8.36552 24.75V23.8068H8.73265V24.75H8.36552ZM10.3061 24.75H9.96516V23.8068H10.3061V24.75ZM6.76587 23.8068H7.10678V24.75H6.76587V23.8068ZM6.76587 25.9553H7.10678V26.8461H6.76587V25.9553Z" fill="#800019"/>
<path d="M6.92322 28.4703C7.10678 28.8896 7.42147 30.0686 7.42147 30.4354L8.73265 30.1472C8.57531 29.2564 8.44419 28.7585 8.12951 28.1821L6.92322 28.4703Z" fill="#800019"/>
<path d="M8.7063 28.5489C8.94231 28.942 9.36189 30.0162 9.41434 30.4354L10.7517 30.0948C10.5682 29.2826 10.3322 28.7585 9.99126 28.1821L8.7063 28.5489Z" fill="#800019"/>
<path d="M22.5524 22.7063H18.4615V22.9159L17.5961 22.1299C16.9143 22.5491 15.8392 22.8897 14.6066 23.0469H14.5542V30.1211H15.9965V29.6495H18.2255V28.2347H15.9965V26.584H18.2255V25.2478H15.9965V24.0949C16.9668 23.9115 17.8059 23.6233 18.4353 23.2827V30.5665H19.9038V24.0687H21.0839V28.2347H20.1398L20.6381 29.7281H21.3461C22.0017 29.7281 22.5524 29.2303 22.5524 28.6015V22.7063Z" fill="#800019"/>
<path d="M30.105 28.4705C30.2099 28.3657 30.341 28.2609 30.4721 28.1299C30.8655 27.7369 31.2064 27.3439 31.4686 26.9508L31.0753 26.5578V22.7587H28.6364V21.6321H27.063V22.7587H24.5718V28.9683C24.2571 29.0469 23.9686 29.0993 23.6802 29.1517L23.9949 30.6189C24.1522 30.5927 24.3095 30.5403 24.4669 30.5141C25.8043 30.1997 27.0368 29.8067 27.9809 29.4399V28.5229C28.8725 29.4661 30.1312 30.2783 31.5211 30.75L32.2815 29.4661C31.4162 29.1779 30.6819 28.8373 30.105 28.4705ZM29.4756 25.6146H26.0665V25.3002H29.4756V25.6146ZM29.7116 26.8722C29.6067 27.0032 29.4756 27.1604 29.3445 27.2915C29.2396 27.3963 29.1347 27.5273 29.0298 27.6321C28.82 27.3963 28.6102 27.1342 28.4791 26.8722H29.7116ZM29.4756 23.9639V24.2784H26.0665V23.9639H29.4756ZM26.0928 28.6015V26.8722H26.827C27.0106 27.2914 27.2728 27.7369 27.6137 28.1299C27.1417 28.2871 26.6435 28.4443 26.0928 28.6015Z" fill="#800019"/>
<path d="M39.9125 22.2871H34.8251V25.9028H39.9125V22.2871ZM36.2149 23.4923H38.4964V24.6714H36.2149V23.4923Z" fill="#800019"/>
<path d="M33.1731 26.322V30.5665H34.5892V30.2521H35.7168V30.5665H37.1329V26.322H33.1731ZM34.5892 29.0731V27.5797H35.7168V29.0731H34.5892Z" fill="#800019"/>
<path d="M41.5384 26.322H37.5524V30.5665H38.9947V30.2521H40.0961V30.5665H41.5384V26.322ZM38.9684 29.0731V27.5797H40.0698V29.0731H38.9684Z" fill="#800019"/>
</svg>
