<svg width="40" height="27" viewBox="0 0 40 27" fill="none" xmlns="http://www.w3.org/2000/svg">
<g clip-path="url(#clip0_136_1050)">
<path d="M40 16.4294H36.2273V0.443359H40V16.4294Z" fill="white"/>
<path d="M10.1818 4.98484L8.02273 16.4294H5.38636L3.20455 4.98484V16.4294H0V0.443359H4.81818L6.70455 10.4346L8.59091 0.443359H13.3864V16.4294H10.1818V4.98484Z" fill="white"/>
<path d="M25.0682 12.4329C25.0682 15.2032 22.8182 16.7927 20.0454 16.7927C17.2727 16.7927 15.0227 15.2032 15.0227 12.4329V0.443359H18.7954V12.3648C18.7954 13.046 19.3636 13.6137 20.0454 13.6137C20.7273 13.6137 21.2954 13.0687 21.2954 12.3648V0.443359H25.0682V12.4329Z" fill="white"/>
<path d="M34.5909 12.9324C34.5909 15.3394 32.6364 16.8154 30.2046 16.8154C27.7728 16.8154 25.8409 15.3394 25.8409 12.9324V10.5936H29.2046V12.9324C29.2046 13.3866 29.5682 13.7499 30.0228 13.7499C30.4773 13.7499 30.8409 13.3866 30.8409 12.9324V0.443359H34.6137L34.5909 12.9324Z" fill="white"/>
<path d="M10.2045 24.1043H10.9318V23.0598H10.0909V22.2877H11.2045V21.2432H10.0909V20.4257H10.8409V19.3358H6.06815C6.15906 19.2222 6.22724 19.086 6.31815 18.9725L5.20451 18.4502C4.90906 18.9043 4.54542 19.3585 4.09088 19.7899C3.8636 20.017 3.63633 20.2214 3.40906 20.403L4.40906 21.0843C4.52269 20.9934 4.63633 20.9026 4.74997 20.8118V21.2432H3.65906V22.2877H4.74997V23.0598H3.97724V24.1043H4.72724C4.45451 24.6266 3.99997 25.2624 3.65906 25.5576L4.6136 26.2843C5.09088 25.8301 5.52269 25.217 5.8636 24.4904L5.1136 24.1043H9.90906L9.13633 24.5585C9.52269 25.0581 9.95451 25.6939 10.2045 26.2161L11.2727 25.6939C11.0227 25.217 10.5909 24.5585 10.2045 24.1043ZM8.93178 23.0598H8.63633V22.2877H8.93178V23.0598ZM7.54542 22.2877V23.0598H7.22724V22.2877H7.54542ZM7.24997 21.2432V20.4257H7.56815V21.2432H7.24997ZM8.93178 21.2432H8.63633V20.4257H8.93178V21.2432ZM5.8636 20.4257H6.15906V21.2432H5.8636V20.4257ZM5.8636 22.2877H6.15906V23.0598H5.8636V22.2877Z" fill="white"/>
<path d="M6 24.4676C6.15909 24.8309 6.43182 25.8527 6.43182 26.1706L7.56818 25.9208C7.43182 25.1488 7.31818 24.7173 7.04545 24.2178L6 24.4676Z" fill="white"/>
<path d="M7.54541 24.5357C7.74996 24.8763 8.11359 25.8073 8.15905 26.1706L9.31814 25.8754C9.15905 25.1715 8.9545 24.7173 8.65905 24.2178L7.54541 24.5357Z" fill="white"/>
<path d="M19.5455 19.4722H16V19.6539L15.25 18.9727C14.6591 19.336 13.7273 19.6312 12.6591 19.7674H12.6136V25.8984H13.8636V25.4897H15.7955V24.2635H13.8636V22.8329H15.7955V21.6748H13.8636V20.6757C14.7046 20.5168 15.4318 20.267 15.9773 19.9718V26.2844H17.25V20.653H18.2727V24.2635H17.4546L17.8864 25.5578H18.5C19.0682 25.5578 19.5455 25.1264 19.5455 24.5814V19.4722Z" fill="white"/>
<path d="M26.0909 24.4677C26.1818 24.3768 26.2954 24.286 26.4091 24.1725C26.75 23.8318 27.0454 23.4912 27.2727 23.1506L26.9318 22.81V19.5174H24.8182V18.541H23.4545V19.5174H21.2954V24.8991C21.0227 24.9672 20.7727 25.0126 20.5227 25.058L20.7954 26.3297C20.9318 26.307 21.0682 26.2615 21.2045 26.2388C22.3636 25.9663 23.4318 25.6257 24.25 25.3078V24.5131C25.0227 25.3305 26.1136 26.0345 27.3182 26.4432L27.9772 25.3305C27.2272 25.0808 26.5909 24.7856 26.0909 24.4677ZM25.5454 21.9925H22.5909V21.7201H25.5454V21.9925ZM25.75 23.0825C25.6591 23.196 25.5454 23.3323 25.4318 23.4458C25.3409 23.5367 25.25 23.6502 25.1591 23.741C24.9772 23.5366 24.7954 23.3096 24.6818 23.0825H25.75ZM25.5454 20.562V20.8345H22.5909V20.562H25.5454ZM22.6136 24.5812V23.0825H23.25C23.4091 23.4458 23.6363 23.8318 23.9318 24.1725C23.5227 24.3087 23.0909 24.4449 22.6136 24.5812Z" fill="white"/>
<path d="M34.5909 19.1089H30.1818V22.2425H34.5909V19.1089ZM31.3863 20.1534H33.3636V21.1753H31.3863V20.1534Z" fill="white"/>
<path d="M28.75 22.606V26.2846H29.9773V26.0121H30.9545V26.2846H32.1818V22.606H28.75ZM29.9773 24.9902V23.6959H30.9545V24.9902H29.9773Z" fill="white"/>
<path d="M36 22.606H32.5454V26.2846H33.7954V26.0121H34.75V26.2846H36V22.606ZM33.7727 24.9902V23.6959H34.7272V24.9902H33.7727Z" fill="white"/>
</g>
<defs>
<clipPath id="clip0_136_1050">
<rect width="40" height="26" fill="white" transform="translate(0 0.443359)"/>
</clipPath>
</defs>
</svg>
