<svg width="224" height="35" viewBox="0 0 224 35" fill="none" xmlns="http://www.w3.org/2000/svg">
<g clip-path="url(#clip0_136_1032)">
<path d="M125.703 23.625H128.485V19.635H125.3V16.695H129.518V12.705H125.3V9.55499H128.118V5.42499H109.935C110.268 4.95249 110.565 4.49749 110.845 4.04249L106.558 2.04749C105.438 3.74499 104.003 5.49499 102.323 7.17499C101.465 8.03249 100.59 8.81998 99.6975 9.53748L103.478 12.11C103.898 11.7775 104.335 11.41 104.773 11.0425V12.67H100.573V16.66H104.773V19.6H101.85V23.59H104.703C103.67 25.62 101.938 27.9825 100.678 29.12L104.353 31.9025C106.155 30.1875 107.835 27.825 109.095 25.0425L106.26 23.59H124.565L121.625 25.305C123.078 27.2125 124.74 29.6275 125.703 31.64L129.745 29.61C128.87 27.8075 127.225 25.2525 125.703 23.59V23.625ZM120.838 19.635H119.718V16.695H120.838V19.635ZM115.623 16.695V19.635H114.45V16.695H115.623ZM114.45 12.705V9.55499H115.623V12.705H114.45ZM120.838 12.705H119.718V9.55499H120.838V12.705ZM109.2 9.55499H110.355V12.705H109.2V9.55499ZM109.2 16.6775H110.355V19.6175H109.2V16.6775Z" fill="#800019"/>
<path d="M109.743 24.9725C110.373 26.39 111.37 30.275 111.37 31.4475L115.745 30.485C115.255 27.5275 114.783 25.935 113.733 23.9575L109.743 24.9725Z" fill="#800019"/>
<path d="M115.605 25.235C116.392 26.565 117.81 30.0825 117.967 31.4825L122.412 30.3625C121.8 27.685 120.995 25.935 119.892 24.045L115.605 25.235Z" fill="#800019"/>
<path d="M161.332 5.94999H147.787V6.64999L144.935 4.02499C142.66 5.38999 139.125 6.50999 135.1 7.01749C135.047 7.01749 135.012 7.01749 134.96 7.01749V30.3975H139.737V28.8575H147.052V24.185H139.737V18.7425H147.052V14.315H139.737V10.4825C142.905 9.85249 145.687 8.94249 147.787 7.83999V31.92H152.617V10.43H156.485V24.2025H153.335L154.945 29.155H157.325C159.53 29.155 161.315 27.475 161.315 25.3925C161.315 25.0075 161.315 5.96749 161.315 5.96749L161.332 5.94999Z" fill="#800019"/>
<path d="M186.235 24.9725C186.62 24.6225 187.022 24.255 187.407 23.87C188.702 22.5575 189.84 21.2275 190.715 20.0025L189.402 18.725V6.12498H181.37V2.41498H176.172V6.12498H167.965V26.6175H167.947C166.95 26.845 165.952 27.0375 164.99 27.2125L165.987 32.095C166.512 31.99 167.02 31.8675 167.527 31.745C171.955 30.695 175.98 29.435 179.147 28.1575V25.1125C182.07 28.21 186.217 30.905 190.837 32.4275L193.375 28.21C190.61 27.3 188.195 26.215 186.217 24.955L186.235 24.9725ZM184.222 15.5225H172.987V14.455H184.222V15.5225ZM184.975 19.67C184.607 20.125 184.222 20.615 183.802 21.0875C183.47 21.455 183.137 21.8225 182.787 22.1725C182.052 21.385 181.44 20.545 180.985 19.67H184.992H184.975ZM184.222 10.0975V11.1825H172.987V10.0975H184.222ZM172.987 25.3925V19.67H175.437C176.032 21.0875 176.925 22.505 178.027 23.87C176.47 24.4125 174.79 24.92 172.97 25.41L172.987 25.3925Z" fill="#800019"/>
<path d="M218.627 4.56747H201.792V16.5025H218.627V4.56747ZM206.43 8.50497H213.972V12.4075H206.43V8.50497Z" fill="#800019"/>
<path d="M196.438 17.92V31.955H201.075V30.9575H204.768V31.955H209.405V17.92H196.438ZM201.075 26.985V22.0675H204.768V26.985H201.075Z" fill="#800019"/>
<path d="M224 17.92H210.84V31.955H215.582V30.9575H219.257V31.955H224V17.92ZM215.582 26.985V22.0675H219.257V26.985H215.582Z" fill="#800019"/>
<path d="M85.3125 34.1775H77.245V0H85.33L85.3125 34.1775Z" fill="black"/>
<path d="M21.4725 9.695L16.835 34.195L11.1825 34.1775L6.5275 9.695V34.1775L0 34.1075V0H9.9575L14 21.3675L18.0425 0H28.35V34.195H21.4725V9.695Z" fill="black"/>
<path d="M53.3399 25.6375C53.3399 31.535 48.5099 34.965 42.5949 34.965C36.6799 34.965 31.8499 31.535 31.8499 25.6375L31.8149 0H39.8999V25.4975C39.9174 26.9675 41.1249 28.14 42.5949 28.14C44.0649 28.14 45.2724 26.95 45.2724 25.4975V0H53.3749L53.3399 25.6375Z" fill="black"/>
<path d="M73.745 26.705C73.745 31.8675 69.5275 35 64.365 35C59.2025 35 55.0025 31.8675 55.0025 26.705C54.985 25.4275 54.985 23.52 54.985 21.7175H62.1775V26.705C62.1775 27.6675 62.965 28.455 63.9275 28.455C64.89 28.455 65.6775 27.6675 65.6775 26.705V0H73.7625V26.705H73.745Z" fill="black"/>
</g>
<defs>
<clipPath id="clip0_136_1032">
<rect width="224" height="35" fill="white"/>
</clipPath>
</defs>
</svg>
